<svg width="16" height="16" viewBox="0 0 16 16" fill="none" xmlns="http://www.w3.org/2000/svg">
<path fill-rule="evenodd" clip-rule="evenodd" d="M1.6 8C1.6 4.46538 4.46538 1.6 8 1.6C11.5346 1.6 14.4 4.46538 14.4 8C14.4 11.5346 11.5346 14.4 8 14.4C4.46538 14.4 1.6 11.5346 1.6 8ZM8 0C3.58172 0 0 3.58172 0 8C0 12.4183 3.58172 16 8 16C12.4183 16 16 12.4183 16 8C16 3.58172 12.4183 0 8 0ZM11.7657 6.96541C12.0781 6.65299 12.0781 6.14646 11.7657 5.83404C11.4533 5.52162 10.9467 5.52162 10.6343 5.83404L7.2 9.26835L5.36569 7.43404C5.05327 7.12162 4.54673 7.12162 4.23431 7.43404C3.9219 7.74646 3.9219 8.25299 4.23431 8.56541L6.63431 10.9654C6.94673 11.2778 7.45327 11.2778 7.76569 10.9654L11.7657 6.96541Z" fill="white"/>
</svg>
