<svg width="18" height="18" viewBox="0 0 18 18" fill="none" xmlns="http://www.w3.org/2000/svg">
<path d="M10.5556 9L17.6667 1.88889C18.1111 1.44444 18.1111 0.777778 17.6667 0.333333C17.2222 -0.111111 16.5556 -0.111111 16.1111 0.333333L9 7.44444L1.88889 0.333333C1.44444 -0.111111 0.777778 -0.111111 0.333333 0.333333C-0.111111 0.777778 -0.111111 1.44444 0.333333 1.88889L7.44444 9L0.333333 16.1111C-0.111111 16.5556 -0.111111 17.2222 0.333333 17.6667C0.777778 18.1111 1.44444 18.1111 1.88889 17.6667L9 10.5556L16.1111 17.6667C16.5556 18.1111 17.2222 18.1111 17.6667 17.6667C18.1111 17.2222 18.1111 16.5556 17.6667 16.1111L10.5556 9Z" fill="white"/>
</svg>
