<svg width="19" height="19" viewBox="0 0 19 19" fill="none" xmlns="http://www.w3.org/2000/svg">
<path d="M11.0556 9.5L18.1667 2.38889C18.6111 1.94444 18.6111 1.27778 18.1667 0.833333C17.7222 0.388889 17.0556 0.388889 16.6111 0.833333L9.5 7.94444L2.38889 0.833333C1.94444 0.388889 1.27778 0.388889 0.833333 0.833333C0.388889 1.27778 0.388889 1.94444 0.833333 2.38889L7.94444 9.5L0.833333 16.6111C0.388889 17.0556 0.388889 17.7222 0.833333 18.1667C1.27778 18.6111 1.94444 18.6111 2.38889 18.1667L9.5 11.0556L16.6111 18.1667C17.0556 18.6111 17.7222 18.6111 18.1667 18.1667C18.6111 17.7222 18.6111 17.0556 18.1667 16.6111L11.0556 9.5Z" fill="white"/>
</svg>
