<svg width="12" height="12" viewBox="0 0 12 12" fill="none" xmlns="http://www.w3.org/2000/svg">
<path d="M11.6975 10.3729L7.46218 6L11.6975 1.72881C12.1008 1.32203 12.1008 0.711864 11.6975 0.305085C11.2941 -0.101695 10.6891 -0.101695 10.2857 0.305085L5.94958 4.57627L1.71429 0.305085C1.31092 -0.101695 0.705882 -0.101695 0.302521 0.305085C-0.10084 0.711864 -0.10084 1.32203 0.302521 1.72881L4.53782 6L0.302521 10.2712C-0.10084 10.678 -0.10084 11.2881 0.302521 11.6949C0.705882 12.1017 1.31092 12.1017 1.71429 11.6949L5.94958 7.42373L10.1849 11.6949C10.5882 12.1017 11.1933 12.1017 11.5966 11.6949C12.1008 11.3898 12.1008 10.7797 11.6975 10.3729Z" fill="white"/>
</svg>
