<svg width="16" height="16" viewBox="0 0 16 16" fill="none" xmlns="http://www.w3.org/2000/svg">
<path fill-rule="evenodd" clip-rule="evenodd" d="M1.6 8C1.6 4.46538 4.46538 1.6 8 1.6C11.5346 1.6 14.4 4.46538 14.4 8C14.4 11.5346 11.5346 14.4 8 14.4C4.46538 14.4 1.6 11.5346 1.6 8ZM8 0C3.58172 0 0 3.58172 0 8C0 12.4183 3.58172 16 8 16C12.4183 16 16 12.4183 16 8C16 3.58172 12.4183 0 8 0ZM7.57901 11.92C7.63561 11.9733 7.69929 12 7.77005 12H9.22406C9.30189 12 9.36557 11.9733 9.41509 11.92C9.4717 11.8667 9.5 11.7981 9.5 11.7143V4.28571C9.5 4.2019 9.4717 4.13333 9.41509 4.08C9.36557 4.02667 9.30189 4 9.22406 4H7.82311C7.73113 4 7.64976 4.02667 7.57901 4.08L5.11675 6.12571C5.03892 6.18667 5 6.27048 5 6.37714C5 6.4381 5.01415 6.49524 5.04245 6.54857L5.70047 7.46286C5.76415 7.55429 5.83844 7.6 5.92335 7.6C5.97288 7.6 6.02594 7.58095 6.08255 7.54286L7.50472 6.36571V11.7143C7.50472 11.7905 7.52948 11.859 7.57901 11.92Z" fill="white"/>
</svg>
