<svg width="16" height="16" viewBox="0 0 16 16" fill="none" xmlns="http://www.w3.org/2000/svg">
<path fill-rule="evenodd" clip-rule="evenodd" d="M1.6 8C1.6 4.46538 4.46538 1.6 8 1.6C11.5346 1.6 14.4 4.46538 14.4 8C14.4 11.5346 11.5346 14.4 8 14.4C4.46538 14.4 1.6 11.5346 1.6 8ZM8 0C3.58172 0 0 3.58172 0 8C0 12.4183 3.58172 16 8 16C12.4183 16 16 12.4183 16 8C16 3.58172 12.4183 0 8 0ZM5.07355 10.9313C5.1296 10.9771 5.19264 11 5.2627 11H10.7373C10.8144 11 10.8774 10.9771 10.9264 10.9313C10.9755 10.8789 11 10.82 11 10.7546V9.70407C11 9.63207 10.9755 9.57316 10.9264 9.52735C10.8774 9.48153 10.8144 9.45863 10.7373 9.45863H8.07881L8.95096 8.64376C9.58844 8.19869 10.0613 7.78635 10.3695 7.40673C10.6848 7.02712 10.8424 6.60168 10.8424 6.13043C10.8424 5.705 10.7303 5.33193 10.5061 5.01122C10.289 4.69051 9.96672 4.4418 9.5394 4.26508C9.11208 4.08836 8.6042 4 8.01576 4C7.44834 4 6.94746 4.10472 6.51313 4.31417C6.07881 4.51706 5.73905 4.79523 5.49387 5.14867C5.25569 5.49556 5.1296 5.88499 5.11559 6.31697C5.11559 6.36933 5.1366 6.41842 5.17863 6.46424C5.22767 6.50351 5.28371 6.52314 5.34676 6.52314H6.7338C6.92995 6.52314 7.04904 6.44787 7.09107 6.29734C7.1401 6.06826 7.23818 5.87845 7.38529 5.72791C7.5324 5.57083 7.74256 5.49229 8.01576 5.49229C8.53415 5.49229 8.79334 5.73446 8.79334 6.21879C8.79334 6.4086 8.70228 6.6115 8.52014 6.82749C8.34501 7.03693 8.08581 7.27256 7.74256 7.53436C7.4063 7.79617 6.90543 8.16269 6.23993 8.63394L5.2627 9.52735C5.08757 9.65825 5 9.82188 5 10.0182V10.7546C5 10.82 5.02452 10.8789 5.07355 10.9313Z" fill="white"/>
</svg>
