<svg width="30" height="30" viewBox="0 0 30 30" fill="none" xmlns="http://www.w3.org/2000/svg">
<g filter="url(#filter0_d_686:26237)">
<path fill-rule="evenodd" clip-rule="evenodd" d="M3 15C3 8.37105 8.37105 3 15 3C21.629 3 27 8.37105 27 15C27 21.629 21.629 27 15 27C8.37105 27 3 21.629 3 15ZM9.52912 22.3677H20.4509V11.2662L16.8369 7.63228H9.52912V22.3677ZM10.1483 8.25146H16.2182V11.9054H19.8322V21.729H10.1483V8.25146ZM11.3264 18.7939H15.4795V18.1749H11.3264V18.7939ZM11.3264 17.3763H18.6542H18.6741V16.7573H11.3264V17.3763ZM11.3264 15.9786H18.6542H18.6741V15.3596H11.3264V15.9786ZM18.6542 14.541V13.922H11.3264V14.541H18.6542Z" fill="white"/>
</g>
<defs>
<filter id="filter0_d_686:26237" x="0" y="0" width="30" height="30" filterUnits="userSpaceOnUse" color-interpolation-filters="sRGB">
<feFlood flood-opacity="0" result="BackgroundImageFix"/>
<feColorMatrix in="SourceAlpha" type="matrix" values="0 0 0 0 0 0 0 0 0 0 0 0 0 0 0 0 0 0 127 0" result="hardAlpha"/>
<feOffset/>
<feGaussianBlur stdDeviation="1.5"/>
<feComposite in2="hardAlpha" operator="out"/>
<feColorMatrix type="matrix" values="0 0 0 0 0 0 0 0 0 0.760784 0 0 0 0 1 0 0 0 0.5 0"/>
<feBlend mode="normal" in2="BackgroundImageFix" result="effect1_dropShadow_686:26237"/>
<feBlend mode="normal" in="SourceGraphic" in2="effect1_dropShadow_686:26237" result="shape"/>
</filter>
</defs>
</svg>
