<svg width="16" height="16" viewBox="0 0 16 16" fill="none" xmlns="http://www.w3.org/2000/svg">
<path fill-rule="evenodd" clip-rule="evenodd" d="M1.6 8C1.6 4.46538 4.46538 1.6 8 1.6C11.5346 1.6 14.4 4.46538 14.4 8C14.4 8.44183 14.7582 8.8 15.2 8.8C15.6418 8.8 16 8.44183 16 8C16 3.58172 12.4183 0 8 0C3.58172 0 0 3.58172 0 8C0 12.4183 3.58172 16 8 16C8.44183 16 8.8 15.6418 8.8 15.2C8.8 14.7582 8.44183 14.4 8 14.4C4.46538 14.4 1.6 11.5346 1.6 8ZM8 8.8C8.44183 8.8 8.8 8.44183 8.8 8C8.8 7.55817 8.44183 7.2 8 7.2C7.55817 7.2 7.2 7.55817 7.2 8C7.2 8.44183 7.55817 8.8 8 8.8ZM5.6 8C5.6 8.44183 5.24183 8.8 4.8 8.8C4.35817 8.8 4 8.44183 4 8C4 7.55817 4.35817 7.2 4.8 7.2C5.24183 7.2 5.6 7.55817 5.6 8ZM11.2 8.8C11.6418 8.8 12 8.44183 12 8C12 7.55817 11.6418 7.2 11.2 7.2C10.7582 7.2 10.4 7.55817 10.4 8C10.4 8.44183 10.7582 8.8 11.2 8.8Z" fill="white"/>
</svg>
