<svg width="16" height="16" viewBox="0 0 16 16" fill="none" xmlns="http://www.w3.org/2000/svg">
  <path fillRule="evenodd" clipRule="evenodd" d="M15 8C15 11.866 11.866 15 8 15C4.13401 15 1 11.866 1 8C1 4.13401 4.13401 1 8 1C11.866 1 15 4.13401 15 8ZM16 8C16 12.4183 12.4183 16 8 16C3.58172 16 0 12.4183 0 8C0 3.58172 3.58172 0 8 0C12.4183 0 16 3.58172 16 8ZM3.85355 7.14645C3.65829 6.95118 3.34171 6.95118 3.14645 7.14645C2.95118 7.34171 2.95118 7.65829 3.14645 7.85355L6.64645 11.3536C6.74313 11.4502 6.8752 11.5031 7.01189 11.4999C7.14859 11.4966 7.27799 11.4375 7.36997 11.3363L12.37 5.83634C12.5557 5.63201 12.5407 5.31578 12.3363 5.13003C12.132 4.94428 11.8158 4.95933 11.63 5.16366L6.98276 10.2757L3.85355 7.14645Z" fill="#F6CC5B" />
</svg>
