<svg width="16" height="16" viewBox="0 0 16 16" fill="none" xmlns="http://www.w3.org/2000/svg">
<path fill-rule="evenodd" clip-rule="evenodd" d="M8 14.4C11.5346 14.4 14.4 11.5346 14.4 8C14.4 4.46538 11.5346 1.6 8 1.6C4.46538 1.6 1.6 4.46538 1.6 8C1.6 11.5346 4.46538 14.4 8 14.4ZM8 16C12.4183 16 16 12.4183 16 8C16 3.58172 12.4183 0 8 0C3.58172 0 0 3.58172 0 8C0 12.4183 3.58172 16 8 16ZM7.2 3.2C7.64183 3.2 8 3.55817 8 4V8.8H11.2C11.6418 8.8 12 9.15817 12 9.6C12 10.0418 11.6418 10.4 11.2 10.4L7.2 10.4C6.75817 10.4 6.4 10.0418 6.4 9.6C6.4 9.5997 6.4 9.59941 6.4 9.59912L6.4 4C6.4 3.55817 6.75817 3.2 7.2 3.2Z" fill="white"/>
</svg>
